<svg xmlns="http://www.w3.org/2000/svg" viewBox="0 0 64 64" role="img" aria-label="Academia dos Estudos">
  <g fill="none" stroke="#E98515" stroke-width="3.4" stroke-linecap="round" stroke-linejoin="round">
    <!-- graduation cap -->
    <path d="M32 8 6 18l26 10 26-10z" fill="#E98515" stroke="none"/>
    <path d="M14 22v10c0 5 8 9 18 9s18-4 18-9V22"/>
    <path d="M58 18v12" />
    <circle cx="58" cy="32" r="2.2" fill="#E98515" stroke="none"/>
    <!-- owl body -->
    <path d="M18 34c0-3 3-5 6-5h16c3 0 6 2 6 5v6c0 9-6 15-14 15s-14-6-14-15z" fill="#fff"/>
    <circle cx="26" cy="40" r="4.6" fill="#fff"/>
    <circle cx="38" cy="40" r="4.6" fill="#fff"/>
    <circle cx="26" cy="40" r="1.7" fill="#E98515" stroke="none"/>
    <circle cx="38" cy="40" r="1.7" fill="#E98515" stroke="none"/>
    <path d="M31 44l1 2 1-2" />
  </g>
</svg>
